<svg width="56" height="56" viewBox="0 0 56 56" fill="none" xmlns="http://www.w3.org/2000/svg">
    <g opacity="1.0">
        <path
            d="M8.4 16.8289V8.06579C8.4 4.5921 10.92 1.75 14 1.75H42C45.08 1.75 47.6 4.5921 47.6 8.06579V16.8605C44.352 18.1553 42 21.6289 42 25.7342V32.1447H14V25.7026C14 21.6289 11.648 18.1237 8.4 16.8289ZM50.4 19.5132C47.32 19.5132 44.8 22.3553 44.8 25.8289V35.3026H11.2V25.8289C11.2 24.1539 10.61 22.5475 9.5598 21.363C8.50959 20.1786 7.08521 19.5132 5.6 19.5132C4.11479 19.5132 2.69041 20.1786 1.6402 21.363C0.589998 22.5475 0 24.1539 0 25.8289V41.6184C0 45.0921 2.52 47.9342 5.6 47.9342V54.25H11.2V47.9342H44.8V54.25H50.4V47.9342C53.48 47.9342 56 45.0921 56 41.6184V25.8289C56 22.3553 53.48 19.5132 50.4 19.5132Z"
            fill="#C3DDDD" fill-opacity="1.0" />
    </g>
</svg>