<svg width="56" height="56" viewBox="0 0 56 56" fill="none" xmlns="http://www.w3.org/2000/svg">
    <g opacity="1.0" clip-path="url(#clip0_2110_2893)">
        <path
            d="M25.3499 38.6727H15.8709C15.3099 38.6727 14.8557 39.1462 14.8557 39.7309V55.0718C14.8557 55.6565 15.3099 56.13 15.8709 56.13H25.3499C25.9109 56.13 26.3645 55.6565 26.3645 55.0718V39.7302C26.3645 39.1455 25.9102 38.6727 25.3499 38.6727ZM40.1298 7H30.6507C30.0898 7 29.6355 7.4735 29.6355 8.05821V55.0711C29.6355 55.6558 30.0898 56.1293 30.6507 56.1293H40.1298C40.6907 56.1293 41.145 55.6558 41.145 55.0711V8.05821C41.145 7.4735 40.6907 7 40.1298 7ZM54.9855 21.2826H45.5064C44.9455 21.2826 44.4912 21.7561 44.4912 22.3408V55.0711C44.4912 55.6558 44.9455 56.1293 45.5064 56.1293H54.9848C55.5457 56.1293 56 55.6558 56 55.0711V22.3408C56 21.7568 55.5457 21.2826 54.9855 21.2826ZM10.4943 21.2826H1.0152C0.454259 21.2826 0 21.7561 0 22.3408V55.0711C0 55.6558 0.454259 56.1293 1.0152 56.1293H10.4943C11.0552 56.1293 11.5095 55.6558 11.5095 55.0711V22.3408C11.5095 21.7568 11.0552 21.2826 10.4943 21.2826Z"
            fill="#C3DDDD" fill-opacity="1.0" />
    </g>
    <defs>
        <clipPath id="clip0_2110_2893">
            <rect width="56" height="56" fill="white" />
        </clipPath>
    </defs>
</svg>