<svg width="56" height="56" viewBox="0 0 56 56" fill="none" xmlns="http://www.w3.org/2000/svg">
    <g opacity="1.0">
        <path
            d="M39.9 0.999999V5.6H45.5V1C45.5 0.447715 45.0523 0 44.5 0H40.9C40.3477 0 39.9 0.447714 39.9 0.999999Z"
            fill="#C3DDDD" fill-opacity="1.0" />
        <path fill-rule="evenodd" clip-rule="evenodd"
            d="M39.9 5.6H17.5V0.999999C17.5 0.447714 17.0523 0 16.5 0H12.9C12.3477 0 11.9 0.447715 11.9 1V5.6H9.1C5.992 5.6 3.5 8.092 3.5 11.2V14.75H53.9V11.2C53.9 9.71479 53.31 8.29041 52.2598 7.2402C51.2096 6.19 49.7852 5.6 48.3 5.6H45.5H39.9ZM3.5 50.4V18.75H53.9V50.4C53.9 51.8852 53.31 53.3096 52.2598 54.3598C51.2096 55.41 49.7852 56 48.3 56H9.1C7.61479 56 6.19041 55.41 5.1402 54.3598C4.09 53.3096 3.5 51.8852 3.5 50.4ZM40.7 29.05C41.8046 29.05 42.7 29.9454 42.7 31.05V41.05C42.7 42.1546 41.8046 43.05 40.7 43.05H30.7C29.5954 43.05 28.7 42.1546 28.7 41.05V31.05C28.7 29.9454 29.5954 29.05 30.7 29.05H40.7Z"
            fill="#C3DDDD" fill-opacity="1.0" />
    </g>
</svg>