<svg xmlns="http://www.w3.org/2000/svg" width="56" height="56" viewBox="0 0 56 56" fill="none">
    <g clip-path="url(#clip0_8_2)">
        <mask id="mask0_8_2" style="mask-type:luminance" maskUnits="userSpaceOnUse" x="0" y="0"
            width="56" height="56">
            <path d="M56 0H0V56H56V0Z" fill="white" />
        </mask>
        <g mask="url(#mask0_8_2)">
            <path
                d="M25.3499 28.1676H15.8709C15.3099 28.1676 14.8557 28.6784 14.8557 29.3091V54.8584C14.8557 55.4892 15.3099 56 15.8709 56H25.3499C25.9109 56 26.3645 55.4892 26.3645 54.8584V29.3084C26.3645 28.6776 25.9102 28.1676 25.3499 28.1676ZM40.1298 3H30.6507C30.0898 3 29.6355 3.5108 29.6355 4.14157V54.8577C29.6355 55.4884 30.0898 55.9992 30.6507 55.9992H40.1298C40.6907 55.9992 41.145 55.4884 41.145 54.8577V4.14157C41.145 3.5108 40.6907 3 40.1298 3ZM54.9855 18.4076H45.5064C44.9455 18.4076 44.4912 18.9184 44.4912 19.5492V54.8577C44.4912 55.4884 44.9455 55.9992 45.5064 55.9992H54.9848C55.5457 55.9992 56 55.4884 56 54.8577V19.5492C56 18.9192 55.5457 18.4076 54.9855 18.4076ZM10.4943 15.4076H1.0152C0.454259 15.4076 0 15.9184 0 16.5492V54.8577C0 55.4884 0.454259 55.9992 1.0152 55.9992H10.4943C11.0552 55.9992 11.5095 55.4884 11.5095 54.8577V16.5492C11.5095 15.9192 11.0552 15.4076 10.4943 15.4076Z"
                fill="#B5D8D8" />
        </g>
    </g>
    <defs>
        <clipPath id="clip0_8_2">
            <rect width="56" height="56" fill="white" />
        </clipPath>
    </defs>
</svg>