<svg width="56" height="56" viewBox="0 0 56 56" fill="none" xmlns="http://www.w3.org/2000/svg">
    <g opacity="1.0" clip-path="url(#clip0_2110_2889)">
        <path
            d="M26.1333 33.7167C26.1333 36.6511 25.1627 39.3615 23.5312 41.5417L33.0512 51.0617C33.3912 51.4138 33.5794 51.8853 33.5751 52.3747C33.5709 52.8642 33.3746 53.3323 33.0285 53.6784C32.6824 54.0245 32.2142 54.2209 31.7248 54.2251C31.2353 54.2294 30.7638 54.0412 30.4117 53.7012L20.8917 44.1812C18.5351 45.9435 15.6525 46.8586 12.7109 46.7785C9.76923 46.6984 6.94077 45.6276 4.68351 43.7397C2.42625 41.8517 0.872365 39.2571 0.273477 36.3759C-0.325411 33.4948 0.0657694 30.4959 1.38367 27.8648C2.70157 25.2336 4.86903 23.1244 7.53505 21.8787C10.2011 20.6329 13.2096 20.3235 16.0733 21.0006C18.9371 21.6777 21.4884 23.3017 23.3142 25.6095C25.14 27.9174 26.1333 30.7739 26.1333 33.7167ZM22.4 33.7167C22.4 31.2413 21.4167 28.8673 19.6663 27.117C17.916 25.3667 15.542 24.3833 13.0667 24.3833C10.5913 24.3833 8.21736 25.3667 6.46702 27.117C4.71668 28.8673 3.73335 31.2413 3.73335 33.7167C3.73335 36.192 4.71668 38.566 6.46702 40.3163C8.21736 42.0667 10.5913 43.05 13.0667 43.05C15.542 43.05 17.916 42.0667 19.6663 40.3163C21.4167 38.566 22.4 36.192 22.4 33.7167Z"
            fill="#b5d8d8" fill-opacity="1.0" />
        <path fill-rule="evenodd" clip-rule="evenodd"
            d="M6.46701 4.48367C4.71667 6.23401 3.73334 8.60798 3.73334 11.0833V19.7465C6.79355 17.7004 10.4411 16.7161 14.1152 16.9449C17.7893 17.1736 21.2866 18.6028 24.0693 21.0128C26.8521 23.4227 28.7663 26.6799 29.5176 30.2837C30.2689 33.8874 29.8157 37.6382 28.2277 40.9593L35.6944 50.176C36.2852 50.7657 36.7368 51.48 37.016 52.2666H46.6667C49.142 52.2666 51.516 51.2833 53.2663 49.533C55.0167 47.7826 56 45.4087 56 42.9333V11.0833C56 8.60798 55.0167 6.23401 53.2663 4.48367C51.516 2.73333 49.142 1.75 46.6667 1.75H13.0667C10.5913 1.75 8.21735 2.73333 6.46701 4.48367ZM41.0667 40.25V14.1167C41.0667 13.6216 41.3432 13.1468 41.8355 12.7967C42.3278 12.4467 42.9955 12.25 43.6917 12.25C44.3879 12.25 45.0556 12.4467 45.5478 12.7967C46.0401 13.1468 46.3167 13.6216 46.3167 14.1167V40.25C46.3167 40.7451 46.0401 41.2199 45.5478 41.5699C45.0556 41.92 44.3879 42.1167 43.6917 42.1167C42.9955 42.1167 42.3278 41.92 41.8355 41.5699C41.3432 41.2199 41.0667 40.7451 41.0667 40.25Z"
            fill="#b5d8d8" fill-opacity="1.0" />
    </g>
    <defs>
        <clipPath id="clip0_2110_2889">
            <rect width="56" height="56" fill="white" />
        </clipPath>
    </defs>
</svg>