<svg xmlns="http://www.w3.org/2000/svg" width="56" height="56" viewBox="0 0 56 56" fill="none">
  <path
    d="M8.04231 52.9375V53.375C8.04231 54.8188 9.42432 56 11.1135 56H44.896C46.5852 56 47.9672 54.8188 47.9672 53.375V52.9375C47.9672 51.4938 46.5852 50.3125 44.896 50.3125V42.35C44.896 39.6375 42.8486 36.2687 40.3406 34.6938L30.564 28.5251V27.475L40.3406 21.35C42.8998 19.7313 44.896 16.3625 44.896 13.6938V5.6875C46.5852 5.6875 47.9672 4.50626 47.9672 3.06251V2.62501C47.9672 1.18126 46.5852 9.08971e-06 44.896 9.08971e-06L8.80804 0C8.80804 0 8.04231 1.18126 8.04231 2.62501V5.15201C8.04231 5.15201 9.42432 5.6875 11.1135 5.6875V13.65C11.1135 16.3625 13.1097 19.7313 15.669 21.3062L25.4455 27.4313V28.4813L15.669 34.6062C13.1097 36.2251 11.1135 39.5938 11.1135 42.2625V50.3125C9.42432 50.3125 8.04231 51.4938 8.04231 52.9375ZM13.1609 42.35C13.1609 40.2062 14.85 37.3625 16.8974 36.0938L27.0834 29.7062C27.3394 29.5313 27.4929 29.2687 27.4929 29.0062V27.0813C27.4929 26.8187 27.3394 26.5562 27.0834 26.3813L16.8974 19.95C14.9012 18.6813 13.1609 15.8375 13.1609 13.6938V5.6875H42.8486V13.65C42.8486 15.7938 41.1083 18.6375 39.1121 19.9062L28.9261 26.3375C28.6702 26.5125 28.5166 26.775 28.5166 27.0375V28.9625C28.5166 29.2251 28.6702 29.4875 28.9261 29.6625L39.1121 36.05C41.1083 37.3187 42.8486 40.2062 42.8486 42.3062V50.3125H40.2893V43.4438C40.2893 41.4313 38.805 38.9813 36.9622 37.7562L28.6702 32.5062C28.3119 32.2875 27.7999 32.2875 27.4417 32.5062L19.0984 37.7562C17.2046 38.9375 15.7202 41.4313 15.7202 43.4V50.3125H13.1609V42.35Z"
    fill="#B5D8D8" />
  <path
    d="M28.6189 23.45L39.1333 16.2C39.4916 15.9813 39.6452 15.5875 39.4916 15.2375C39.338 14.8875 38.9798 14.6251 38.519 14.6251H17.3881C16.9274 14.6251 16.5691 14.8875 16.4155 15.2375C16.262 15.5875 16.4155 15.9813 16.7738 16.2L27.3394 23.45C27.544 23.5813 27.7488 23.6251 27.9535 23.6251C28.2607 23.6251 28.4655 23.5813 28.6189 23.45Z"
    fill="#B5D8D8" />
  <path
    d="M8.80804 0L47.2015 9.08971e-06C47.4103 9.08971e-06 47.6103 0.0705924 47.7577 0.196593C47.9051 0.322593 47.9877 0.493509 47.9877 0.672009V5.15201C47.9877 5.3305 47.9051 5.50143 47.7577 5.62743C47.6103 5.75343 47.4103 5.82401 47.2015 5.82401H8.80805C8.59921 5.82401 8.39924 5.75343 8.25183 5.62743C8.10441 5.50143 8.02183 5.3305 8.02183 5.15201V0.672009C8.02183 0.301009 8.37399 0 8.80804 0Z"
    fill="#B5D8D8" />
  <path d="M8 50.176H48V56H8V50.176Z" fill="#B5D8D8" />
  <path
    d="M8.80805 50.176H47.2015C47.4103 50.176 47.6103 50.2466 47.7577 50.3726C47.9051 50.4986 47.9877 50.6695 47.9877 50.848V55.328C47.9877 55.5065 47.9051 55.6774 47.7577 55.8034C47.6103 55.9294 47.4103 56 47.2015 56H8.80805C8.59921 56 8.39924 55.9294 8.25183 55.8034C8.10441 55.6774 8.02183 55.5065 8.02183 55.328V50.848C8.02183 50.4771 8.37399 50.176 8.80805 50.176Z"
    fill="#B5D8D8" />
  <path d="M8.02183 50.176H48V56H8.02183V50.176Z" fill="#B5D8D8" />
</svg>