<svg xmlns="http://www.w3.org/2000/svg" width="56" height="48" viewBox="0 0 56 48" fill="none">
    <path fill-rule="evenodd" clip-rule="evenodd"
        d="M40.6557 7.14248H51.3565C53.9116 7.14248 56.0011 9.1486 56 11.6028V22.7901C56 25.2518 54.8998 26.352 52.4375 26.352H32.8388C32.7752 25.0693 32.2257 23.9171 31.3542 23.083C31.3394 23.0682 31.323 23.0555 31.3065 23.0428C31.2932 23.0325 31.2799 23.0221 31.2673 23.0107C31.0748 22.8333 30.8753 22.6665 30.6553 22.5223C30.609 22.4915 30.5591 22.4665 30.509 22.4414C30.4739 22.4238 30.4387 22.4062 30.4046 22.3865C30.3837 22.3745 30.3629 22.3624 30.3421 22.3504C30.183 22.2583 30.0246 22.1666 29.8533 22.0954C29.7456 22.0502 29.6319 22.0186 29.5181 21.987C29.4703 21.9737 29.4224 21.9604 29.3749 21.9461C29.3258 21.9316 29.2775 21.9153 29.2293 21.899C29.1417 21.8695 29.0543 21.84 28.9625 21.8212C28.6516 21.7588 28.3307 21.7243 28.0006 21.7243C27.6716 21.7243 27.3496 21.7581 27.0387 21.8212C26.9456 21.8401 26.8575 21.8698 26.7694 21.8994C26.7216 21.9156 26.6737 21.9317 26.625 21.9461C26.5772 21.9605 26.5288 21.9739 26.4806 21.9873C26.3672 22.0188 26.2541 22.0502 26.1472 22.0948C25.9754 22.1651 25.8166 22.2571 25.6582 22.3488C25.6365 22.3614 25.6148 22.374 25.5931 22.3865C25.5606 22.405 25.527 22.4219 25.4933 22.4388C25.4425 22.4644 25.3917 22.4899 25.3446 22.5212C25.1247 22.6665 24.9246 22.8333 24.7315 23.0107C24.7196 23.0211 24.7071 23.0308 24.6946 23.0405C24.6779 23.0535 24.6611 23.0665 24.6457 23.0812C23.7754 23.9149 23.2248 25.0669 23.1612 26.3502H3.56249C1.10019 26.3502 0 25.2502 0 22.7878V11.601C0 9.1486 2.08954 7.14248 4.64459 7.14248H15.3443C15.9918 3.10106 16.8038 0 21.0249 0H34.975C39.1962 0 40.0093 3.10106 40.6557 7.14248ZM23.713 3.72524C21.8066 3.72524 21.1013 5.42453 20.5326 7.14248H35.4674C34.8987 5.42453 34.1934 3.72524 32.287 3.72524H23.713Z"
        fill="#B5D8D8" />
    <path
        d="M30.7458 28.2834V27.0397C30.7458 25.523 29.5161 24.2933 28.0006 24.2933C26.4833 24.2933 25.2541 25.523 25.2541 27.0397V28.2834C25.2541 29.8007 26.4833 31.0298 28.0006 31.0298C29.5155 31.0298 30.7458 29.8007 30.7458 28.2834Z"
        fill="#B5D8D8" />
    <path
        d="M32.6301 29.7789C32.0215 31.9796 30.1881 33.5957 28.0011 33.5957C25.813 33.5957 23.9796 31.9796 23.3712 29.7789H4.45793C3.26382 29.7789 2.13621 29.4721 1.1241 28.9396V42.8169C1.1241 45.5268 2.23421 47.7437 4.68659 47.7437H51.3139C53.7658 47.7437 54.8758 45.5268 54.8758 42.8169V28.9409C53.8626 29.4733 52.7361 29.7802 51.5421 29.7802H32.6301V29.7789Z"
        fill="#B5D8D8" />
</svg>