<svg xmlns="http://www.w3.org/2000/svg" width="16" height="16" viewBox="0 0 16 16" fill="none">
    <path
        d="M0.5 16C0.223858 16 0 15.7761 0 15.5V4.63114C0 4.44764 0.100512 4.27889 0.261858 4.19149L7.76186 0.128993C7.91042 0.0485211 8.08958 0.0485213 8.23814 0.128993L15.7381 4.19149C15.8995 4.27889 16 4.44764 16 4.63114V15.5C16 15.7761 15.7761 16 15.5 16H9.5C9.22386 16 9 15.7761 9 15.5V11.1667C9 10.8905 8.77614 10.6667 8.5 10.6667H7.5C7.22386 10.6667 7 10.8905 7 11.1667V15.5C7 15.7761 6.77614 16 6.5 16H0.5Z" />
</svg>