<svg xmlns="http://www.w3.org/2000/svg" width="56" height="56" viewBox="0 0 56 56" fill="none">
    <g clip-path="url(#clip0_2132_712)">
        <mask id="mask0_2132_712" style="mask-type:luminance" maskUnits="userSpaceOnUse" x="0" y="0"
            width="56" height="56">
            <path d="M56 0H0V56H56V0Z" fill="white" />
        </mask>
        <g mask="url(#mask0_2132_712)">
            <path
                d="M2.58057 6.1377C2.58057 5.02794 3.35207 4.13 4.3052 4.13H21.3996C21.8073 4.13 23.4624 6.16455 25.2232 8.49316H51.7102C52.6532 8.49316 53.4195 9.38185 53.4195 10.4824V12.4999H2.58057V6.1377Z"
                fill="#B5D8D8" />
            <path fill-rule="evenodd" clip-rule="evenodd"
                d="M54.1199 51.87H1.88007C0.841153 51.87 -0.00292969 50.8453 -0.00292969 49.5842V16.8282C-0.00292969 15.5636 0.841153 14.5424 1.88007 14.5424H54.1199C55.1588 14.5424 56.0029 15.5636 56.0029 16.8282V49.5842C56.0029 50.8453 55.1588 51.87 54.1199 51.87ZM31.5603 44.0191C31.5603 44.5714 31.1125 45.0191 30.5603 45.0191H28.6904C28.1381 45.0191 27.6904 44.5714 27.6904 44.0191V42.5769C27.6904 42.0246 28.1381 41.5769 28.6904 41.5769H30.5603C31.1125 41.5769 31.5603 42.0246 31.5603 42.5769V44.0191ZM50.1978 44.0191C50.1978 44.5714 49.7501 45.0191 49.1978 45.0191H33.78C33.2277 45.0191 32.78 44.5714 32.78 44.0191V42.5769C32.78 42.0246 33.2277 41.5769 33.78 41.5769H49.1978C49.7501 41.5769 50.1978 42.0246 50.1978 42.5769V44.0191Z"
                fill="#B5D8D8" />
        </g>
    </g>
    <defs>
        <clipPath id="clip0_2132_712">
            <rect width="56" height="56" fill="white" />
        </clipPath>
    </defs>
</svg>