<svg xmlns="http://www.w3.org/2000/svg" xmlns:xlink="http://www.w3.org/1999/xlink" width="500"
    zoomAndPan="magnify" viewBox="0 0 375 374.999991" height="500"
    preserveAspectRatio="xMidYMid meet" version="1.0">
    <defs>
        <clipPath id="44fdb2a6b1">
            <path d="M 76.875 0 L 298.125 0 L 298.125 375 L 76.875 375 Z M 76.875 0 "
                clip-rule="nonzero" />
        </clipPath>
    </defs>
    <rect x="-37.5" width="450" fill="#ffffff" y="-37.499999" height="449.999989" fill-opacity="1" />
    <rect x="-37.5" width="450" fill="#ffffff" y="-37.499999" height="449.999989" fill-opacity="1" />
    <g clip-path="url(#44fdb2a6b1)">
        <path fill="#B5D8D8"
            d="M 110.914062 0 C 110.914062 0 76.875 0 76.875 34.089844 L 76.875 340.910156 C 76.875 375 110.914062 375 110.914062 375 L 264.085938 375 C 264.085938 375 298.125 375 298.125 340.910156 L 298.125 34.089844 C 298.125 0 264.085938 0 264.085938 0 Z M 95.625 41.25 L 95.625 311.25 L 279.375 311.25 L 279.375 41.25 Z M 187.5 357.953125 C 194.550781 357.953125 200.265625 352.230469 200.265625 345.171875 C 200.265625 338.109375 194.550781 332.386719 187.5 332.386719 C 180.449219 332.386719 174.734375 338.109375 174.734375 345.171875 C 174.734375 352.230469 180.449219 357.953125 187.5 357.953125 Z M 148.71875 17.046875 C 146.636719 17.046875 144.953125 18.6875 144.953125 20.808594 L 144.953125 21.804688 C 144.953125 23.882812 146.652344 25.566406 148.71875 25.566406 L 226.28125 25.566406 C 228.363281 25.566406 230.046875 23.925781 230.046875 21.804688 L 230.046875 20.808594 C 230.046875 18.730469 228.347656 17.046875 226.28125 17.046875 Z M 148.71875 17.046875 "
            fill-opacity="1" fill-rule="evenodd" />
    </g>
</svg>